<?xml version="1.0" standalone="no"?>
<!DOCTYPE svg PUBLIC "-//W3C//DTD SVG 20010904//EN"
 "http://www.w3.org/TR/2001/REC-SVG-20010904/DTD/svg10.dtd">
<svg version="1.0" xmlns="http://www.w3.org/2000/svg"
 width="260.000000pt" height="260.000000pt" viewBox="0 0 260.000000 260.000000"
 preserveAspectRatio="xMidYMid meet">
<metadata>
Created by potrace 1.14, written by Peter Selinger 2001-2017
</metadata>
<g transform="translate(0.000000,260.000000) scale(0.100000,-0.100000)"
fill="#000000" stroke="none">
<path d="M0 1300 l0 -1300 1300 0 1300 0 0 1300 0 1300 -1300 0 -1300 0 0
-1300z m1381 1151 l39 -38 -6 -174 -6 -174 46 -220 c26 -121 65 -294 89 -385
l42 -165 226 0 225 0 36 -27 c64 -49 73 -127 22 -188 -34 -40 -74 -49 -242
-57 -78 -3 -145 -10 -148 -14 -2 -5 15 -48 40 -96 24 -49 49 -109 56 -133 7
-24 41 -106 76 -181 53 -114 64 -146 64 -189 0 -47 -4 -56 -39 -91 -33 -33
-45 -39 -81 -39 -77 0 -103 26 -179 179 -38 75 -78 165 -89 201 -11 36 -50
127 -85 203 -56 117 -69 137 -89 137 -68 1 -385 -35 -395 -44 -13 -12 -115
-402 -134 -509 -26 -153 -145 -239 -247 -177 -33 20 -62 71 -62 109 0 12 11
49 24 83 29 73 120 447 112 455 -3 3 -55 -4 -115 -16 -152 -29 -174 -28 -217
12 -45 41 -56 103 -26 156 25 46 101 88 182 100 102 16 252 49 261 58 5 5 18
42 29 83 11 41 29 107 40 145 11 39 40 144 64 235 24 91 58 217 74 280 17 63
40 142 52 174 12 33 24 91 27 130 6 93 17 127 51 159 29 28 120 53 201 56 38
1 48 -4 82 -38z"/>
<path d="M1185 1726 c-4 -10 -20 -66 -35 -125 -15 -58 -42 -159 -60 -224 -18
-65 -30 -121 -26 -124 9 -9 226 13 236 23 5 5 -14 99 -41 209 -67 271 -64 264
-74 241z"/>
</g>
</svg>
